<svg width="10" height="16" viewBox="0 0 10 16" fill="none" xmlns="http://www.w3.org/2000/svg">
<path d="M9.75977 7.50772L0.95508 0.630768C0.932073 0.612655 0.904423 0.601398 0.875307 0.598291C0.846191 0.595184 0.816789 0.600352 0.790478 0.613202C0.764167 0.626051 0.742014 0.646062 0.726562 0.670934C0.711111 0.695807 0.702988 0.724533 0.703127 0.753815V2.26358C0.703127 2.35928 0.748049 2.45108 0.822267 2.50967L7.85352 7.99991L0.822267 13.4901C0.746096 13.5487 0.703127 13.6405 0.703127 13.7362V15.246C0.703127 15.3769 0.853517 15.4491 0.95508 15.369L9.75977 8.4921C9.8346 8.43372 9.89514 8.35905 9.93678 8.27376C9.97842 8.18848 10.0001 8.09482 10.0001 7.99991C10.0001 7.905 9.97842 7.81134 9.93678 7.72605C9.89514 7.64077 9.8346 7.56609 9.75977 7.50772Z" fill="black" fill-opacity="0.7"/>
</svg>
